<mxfile host="app.diagrams.net" agent="Mozilla/5.0 (Macintosh; Intel Mac OS X 10_15_7) AppleWebKit/537.36 (KHTML, like Gecko) Chrome/127.0.0.0 Safari/537.36" version="24.7.7">
  <diagram name="Page-1" id="f1kS_WjRXTSB36JPE9DX">
    <mxGraphModel dx="1434" dy="698" grid="1" gridSize="10" guides="1" tooltips="1" connect="1" arrows="1" fold="1" page="1" pageScale="1" pageWidth="850" pageHeight="1100" math="0" shadow="0">
      <root>
        <mxCell id="0" />
        <mxCell id="1" parent="0" />
        <mxCell id="1_0AQLg7BzT4BThvijTp-6" style="edgeStyle=orthogonalEdgeStyle;rounded=0;orthogonalLoop=1;jettySize=auto;html=1;exitX=0.5;exitY=1;exitDx=0;exitDy=0;" edge="1" parent="1" source="1_0AQLg7BzT4BThvijTp-1" target="1_0AQLg7BzT4BThvijTp-2">
          <mxGeometry relative="1" as="geometry" />
        </mxCell>
        <mxCell id="1_0AQLg7BzT4BThvijTp-1" value="Start TOV640 Find Repeated" style="rounded=1;whiteSpace=wrap;html=1;fillColor=#ffe6cc;strokeColor=#d79b00;" vertex="1" parent="1">
          <mxGeometry x="80" y="40" width="120" height="60" as="geometry" />
        </mxCell>
        <mxCell id="1_0AQLg7BzT4BThvijTp-14" value="" style="edgeStyle=orthogonalEdgeStyle;rounded=0;orthogonalLoop=1;jettySize=auto;html=1;" edge="1" parent="1" source="1_0AQLg7BzT4BThvijTp-2" target="1_0AQLg7BzT4BThvijTp-12">
          <mxGeometry relative="1" as="geometry" />
        </mxCell>
        <mxCell id="1_0AQLg7BzT4BThvijTp-2" value="Input the num. of Exception Reports to be compared" style="shape=parallelogram;perimeter=parallelogramPerimeter;whiteSpace=wrap;html=1;fixedSize=1;fillColor=#d5e8d4;gradientColor=#97d077;strokeColor=#82b366;" vertex="1" parent="1">
          <mxGeometry x="70" y="180" width="140" height="70" as="geometry" />
        </mxCell>
        <mxCell id="1_0AQLg7BzT4BThvijTp-8" value="" style="edgeStyle=orthogonalEdgeStyle;rounded=0;orthogonalLoop=1;jettySize=auto;html=1;" edge="1" parent="1" target="1_0AQLg7BzT4BThvijTp-4">
          <mxGeometry relative="1" as="geometry">
            <mxPoint x="140" y="400" as="sourcePoint" />
          </mxGeometry>
        </mxCell>
        <mxCell id="1_0AQLg7BzT4BThvijTp-9" value="" style="edgeStyle=orthogonalEdgeStyle;rounded=0;orthogonalLoop=1;jettySize=auto;html=1;" edge="1" parent="1" source="1_0AQLg7BzT4BThvijTp-4" target="1_0AQLg7BzT4BThvijTp-5">
          <mxGeometry relative="1" as="geometry" />
        </mxCell>
        <mxCell id="1_0AQLg7BzT4BThvijTp-4" value="Clean up Stagger Left and Right exceptions" style="rounded=0;whiteSpace=wrap;html=1;fillColor=#dae8fc;strokeColor=#6c8ebf;" vertex="1" parent="1">
          <mxGeometry x="80" y="480" width="120" height="60" as="geometry" />
        </mxCell>
        <mxCell id="1_0AQLg7BzT4BThvijTp-26" style="edgeStyle=orthogonalEdgeStyle;rounded=0;orthogonalLoop=1;jettySize=auto;html=1;exitX=0.5;exitY=1;exitDx=0;exitDy=0;entryX=0.5;entryY=0;entryDx=0;entryDy=0;" edge="1" parent="1" source="1_0AQLg7BzT4BThvijTp-5" target="1_0AQLg7BzT4BThvijTp-25">
          <mxGeometry relative="1" as="geometry">
            <Array as="points">
              <mxPoint x="140" y="700" />
              <mxPoint x="400" y="700" />
              <mxPoint x="400" y="150" />
              <mxPoint x="540" y="150" />
            </Array>
          </mxGeometry>
        </mxCell>
        <mxCell id="1_0AQLg7BzT4BThvijTp-5" value="Compare the inputed Exception Reports" style="rounded=0;whiteSpace=wrap;html=1;fillColor=#dae8fc;strokeColor=#6c8ebf;" vertex="1" parent="1">
          <mxGeometry x="80" y="620" width="120" height="60" as="geometry" />
        </mxCell>
        <mxCell id="1_0AQLg7BzT4BThvijTp-12" value="Input Exception Reports" style="html=1;strokeWidth=2;shape=manualInput;whiteSpace=wrap;rounded=1;size=20;arcSize=11;fillColor=#dae8fc;strokeColor=#6c8ebf;" vertex="1" parent="1">
          <mxGeometry x="90" y="335" width="100" height="60" as="geometry" />
        </mxCell>
        <mxCell id="1_0AQLg7BzT4BThvijTp-16" value="" style="endArrow=classic;html=1;rounded=0;exitX=1;exitY=0.5;exitDx=0;exitDy=0;entryX=1;entryY=0.5;entryDx=0;entryDy=0;" edge="1" parent="1" source="1_0AQLg7BzT4BThvijTp-5" target="1_0AQLg7BzT4BThvijTp-12">
          <mxGeometry width="50" height="50" relative="1" as="geometry">
            <mxPoint x="330" y="640" as="sourcePoint" />
            <mxPoint x="380" y="590" as="targetPoint" />
            <Array as="points">
              <mxPoint x="320" y="650" />
              <mxPoint x="320" y="365" />
            </Array>
          </mxGeometry>
        </mxCell>
        <mxCell id="1_0AQLg7BzT4BThvijTp-20" value="" style="edgeStyle=orthogonalEdgeStyle;rounded=0;orthogonalLoop=1;jettySize=auto;html=1;" edge="1" parent="1" source="1_0AQLg7BzT4BThvijTp-17">
          <mxGeometry relative="1" as="geometry">
            <mxPoint x="540" y="450" as="targetPoint" />
          </mxGeometry>
        </mxCell>
        <mxCell id="1_0AQLg7BzT4BThvijTp-17" value="Select&amp;nbsp;&lt;div&gt;&lt;span style=&quot;background-color: initial;&quot;&gt;output location&lt;/span&gt;&lt;/div&gt;" style="shape=parallelogram;perimeter=parallelogramPerimeter;whiteSpace=wrap;html=1;fixedSize=1;fillColor=#f8cecc;strokeColor=#b85450;" vertex="1" parent="1">
          <mxGeometry x="480" y="310" width="120" height="60" as="geometry" />
        </mxCell>
        <mxCell id="1_0AQLg7BzT4BThvijTp-24" value="" style="edgeStyle=orthogonalEdgeStyle;rounded=0;orthogonalLoop=1;jettySize=auto;html=1;" edge="1" parent="1" source="1_0AQLg7BzT4BThvijTp-21" target="1_0AQLg7BzT4BThvijTp-23">
          <mxGeometry relative="1" as="geometry" />
        </mxCell>
        <mxCell id="1_0AQLg7BzT4BThvijTp-21" value="Store report" style="shape=document;whiteSpace=wrap;html=1;boundedLbl=1;fillColor=#f8cecc;strokeColor=#b85450;" vertex="1" parent="1">
          <mxGeometry x="480" y="450" width="120" height="80" as="geometry" />
        </mxCell>
        <mxCell id="1_0AQLg7BzT4BThvijTp-23" value="End of program" style="strokeWidth=2;html=1;shape=mxgraph.flowchart.terminator;whiteSpace=wrap;fillColor=#e1d5e7;strokeColor=#9673a6;" vertex="1" parent="1">
          <mxGeometry x="490" y="615" width="100" height="60" as="geometry" />
        </mxCell>
        <mxCell id="1_0AQLg7BzT4BThvijTp-27" value="" style="edgeStyle=orthogonalEdgeStyle;rounded=0;orthogonalLoop=1;jettySize=auto;html=1;" edge="1" parent="1" source="1_0AQLg7BzT4BThvijTp-25" target="1_0AQLg7BzT4BThvijTp-17">
          <mxGeometry relative="1" as="geometry" />
        </mxCell>
        <mxCell id="1_0AQLg7BzT4BThvijTp-25" value="Write Find Repeated Report and Previous" style="rounded=0;whiteSpace=wrap;html=1;fillColor=#f8cecc;strokeColor=#b85450;" vertex="1" parent="1">
          <mxGeometry x="480" y="170" width="120" height="60" as="geometry" />
        </mxCell>
      </root>
    </mxGraphModel>
  </diagram>
</mxfile>
